<?xml version="1.0" encoding="utf-8"?>
<!-- Svg Vector Icons : http://www.onlinewebfonts.com/icon -->
<!DOCTYPE svg PUBLIC "-//W3C//DTD SVG 1.1//EN" "http://www.w3.org/Graphics/SVG/1.1/DTD/svg11.dtd">
<svg version="1.1" xmlns="http://www.w3.org/2000/svg" xmlns:xlink="http://www.w3.org/1999/xlink" x="0px" y="0px" viewBox="0 0 256 256" enable-background="new 0 0 256 256" xml:space="preserve">
<metadata> Svg Vector Icons : http://www.onlinewebfonts.com/icon </metadata>
<g><g><path fill="#000000" d="M128,10C62.8,10,10,62.8,10,128c0,65.2,52.8,118,118,118c65.2,0,118-52.8,118-118C246,62.8,193.2,10,128,10z M128,47c22.2,0,40.1,17.9,40.1,40.1c0,22.1-17.9,40.1-40.1,40.1c-22.2,0-40.1-17.9-40.1-40.1C87.9,65,105.8,47,128,47z M202.2,179.7H53.8c0,0,0,0,0,0c0-25.3,12.7-47.7,32.1-61c9.6,12.9,24.8,21.3,42.1,21.3c17.3,0,32.5-8.4,42.1-21.3C189.5,132,202.2,154.3,202.2,179.7C202.2,179.7,202.2,179.7,202.2,179.7z"/></g></g>
</svg>